<?xml version="1.0" encoding="UTF-8" standalone="no"?>
<svg width="11px" height="16px" viewBox="0 0 11 16" version="1.1" xmlns="http://www.w3.org/2000/svg" xmlns:xlink="http://www.w3.org/1999/xlink" xmlns:sketch="http://www.bohemiancoding.com/sketch/ns">
    <!-- Generator: Sketch 3.5.1 (25234) - http://www.bohemiancoding.com/sketch -->
    <title>place</title>
    <desc>Created with Sketch.</desc>
    <defs></defs>
    <g id="share" stroke="none" stroke-width="1" fill="none" fill-rule="evenodd" sketch:type="MSPage">
        <g id="share_LinkOption_more" sketch:type="MSArtboardGroup" transform="translate(-576.000000, -418.000000)" fill="#000000">
            <g id="place" sketch:type="MSLayerGroup" transform="translate(576.000000, 418.000000)">
                <path d="M5.5,0 C2.43571429,0 0,2.48 0,5.6 C0,9.76 5.5,16 5.5,16 C5.5,16 11,9.76 11,5.6 C11,2.48 8.56428571,0 5.5,0 L5.5,0 Z M5.5,7.6 C4.4,7.6 3.53571429,6.72 3.53571429,5.6 C3.53571429,4.48 4.4,3.6 5.5,3.6 C6.6,3.6 7.46428571,4.48 7.46428571,5.6 C7.46428571,6.72 6.6,7.6 5.5,7.6 L5.5,7.6 Z" id="Shape" sketch:type="MSShapeGroup"></path>
            </g>
        </g>
    </g>
</svg>