<?xml version="1.0" encoding="UTF-8" standalone="no"?>
<svg width="16px" height="16px" viewBox="0 0 16 16" version="1.1" xmlns="http://www.w3.org/2000/svg" xmlns:xlink="http://www.w3.org/1999/xlink">
    <!-- Generator: Sketch 3.6.1 (26313) - http://www.bohemiancoding.com/sketch -->
    <title>Show_Related_Records_hover</title>
    <desc>Created with Sketch.</desc>
    <defs></defs>
    <g id="specification" stroke="none" stroke-width="1" fill="none" fill-rule="evenodd">
        <g id="spec" transform="translate(-281.000000, -420.000000)" fill="#000000">
            <g id="Select" transform="translate(75.000000, 313.000000)">
                <g id="Select_h" transform="translate(0.000000, 69.000000)">
                    <path d="M217,46.4949939 L218.992858,44.5134102 L219,44.5115834 L219,40.4385772 C219,39.6385772 218.35,38.9840318 217.555555,38.9840318 L214.522222,38.9840318 C214.42035,38.6762784 214.255612,38.464347 214.043842,38.3189268 C213.655075,38.0519642 213.107805,38.0091553 212.5,38.0091553 C211.561111,38.0091553 210.810251,38.1113045 210.521362,38.9840318 C210.521362,38.9840318 209.186823,38.9840317 208.523759,38.9840317 L207.479619,38.9840317 C206.685175,38.9840317 206.035175,39.6385772 206.035175,40.4385772 L206,52.5454545 C206,53.3454545 206.65,54 207.444444,54 L212,54 L212,52 L208,52 L208,42 L217,42 L217,46.4949939 Z M212.5,40 C212.776142,40 213,39.7761424 213,39.5 C213,39.2238576 212.776142,39 212.5,39 C212.223858,39 212,39.2238576 212,39.5 C212,39.7761424 212.223858,40 212.5,40 Z M208,41 L210,41 L210,42 L208,42 L208,41 Z M215,41 L217,41 L217,42 L215,42 L215,41 Z M213,52.1 L213,54 L214.9,54 L220.4,48.45 L218.5,46.55 L213,52.1 Z M221.85,47 C222.05,46.8 222.05,46.5 221.85,46.3 L220.7,45.15 C220.5,44.95 220.2,44.95 220,45.15 L219.1,46.05 L221,47.95 L221.85,47 Z" id="Show_Related_Records_hover"></path>
                </g>
            </g>
        </g>
    </g>
</svg>