<?xml version="1.0" encoding="UTF-8" standalone="no"?>
<svg width="16px" height="15px" viewBox="0 0 16 15" version="1.1" xmlns="http://www.w3.org/2000/svg" xmlns:xlink="http://www.w3.org/1999/xlink">
    <!-- Generator: Sketch 3.6.1 (26313) - http://www.bohemiancoding.com/sketch -->
    <title>PanTo_hover</title>
    <desc>Created with Sketch.</desc>
    <defs></defs>
    <g id="specification" stroke="none" stroke-width="1" fill="none" fill-rule="evenodd">
        <g id="spec" transform="translate(-151.000000, -421.000000)" fill="#000000">
            <g id="Select" transform="translate(75.000000, 313.000000)">
                <g id="Select_h" transform="translate(0.000000, 69.000000)">
                    <path d="M79.5149822,54 C78.8415439,54 78.2960894,53.4530556 78.2960894,52.7777778 L78.2960894,52.7252222 L76.1782631,50.6016111 C75.940579,50.3632778 75.940579,49.9764444 76.1782631,49.7375 C76.4165566,49.4991667 76.8023362,49.4991667 77.0400203,49.7375 L78.2960894,50.997 L78.2960894,44.2222222 C78.2960894,43.8848889 78.5691214,43.6111111 78.9055358,43.6111111 C79.2419502,43.6111111 79.5149822,43.8848889 79.5149822,44.2222222 L79.5149822,47.8888889 L80.1244286,47.8888889 L80.1244286,43.6111111 C80.1244286,43.2737778 80.3974606,43 80.7338751,43 C81.0702895,43 81.3433215,43.2737778 81.3433215,43.6111111 L81.3433215,47.8888889 L81.9527679,47.8888889 L81.9527679,43.6111111 C81.9527679,43.2737778 82.2257999,43 82.5622143,43 C82.8986287,43 83.1716607,43.2737778 83.1716607,43.6111111 L83.1716607,47.8888889 L83.7811072,47.8888889 L83.7811072,44.2222222 C83.7811072,43.8848889 84.0541392,43.6111111 84.3905536,43.6111111 C84.726968,43.6111111 85,43.8848889 85,44.2222222 L85,52.7777778 C85,53.4524444 84.4551549,53.9993889 83.7811072,54 L79.5149822,54 Z M79.9770038,39.0003633 L79.9770038,41.9989965 L82.971091,41.9989965 L82.9710911,39.0237981 L79.9770038,39.0003633 Z M84,39 L84,42.0234506 L86,44 L89.0064165,42.0234507 L91.9769283,42.0234507 L91.9769283,39 L84,39 Z M85.9883854,46.007822 L88.2991518,50.9989736 L91.9770038,50.9989736 L91.9770038,43.383126 L89.3361051,43.383126 L85.9883854,46.007822 Z" id="PanTo_hover"></path>
                </g>
            </g>
        </g>
    </g>
</svg>