<?xml version="1.0" encoding="UTF-8" standalone="no"?>
<svg width="16px" height="16px" viewBox="0 0 16 16" version="1.1" xmlns="http://www.w3.org/2000/svg" xmlns:xlink="http://www.w3.org/1999/xlink">
    <!-- Generator: Sketch 3.6.1 (26313) - http://www.bohemiancoding.com/sketch -->
    <title>Zoo_To_hover</title>
    <desc>Created with Sketch.</desc>
    <defs></defs>
    <g id="specification" stroke="none" stroke-width="1" fill="none" fill-rule="evenodd">
        <g id="spec" transform="translate(-86.000000, -420.000000)">
            <g id="Select" transform="translate(75.000000, 313.000000)">
                <g id="Select_h" transform="translate(0.000000, 69.000000)">
                    <g id="Zoo_To_hover" transform="translate(11.000000, 38.000000)">
                        <g id="Group-3" transform="translate(4.000000, 0.000000)"></g>
                        <path d="M4.04724121,4.01836843 L4.04724121,0.763679056 L7.02380371,0.787576114 L7.02380371,4.61195132 C6.26792914,4.22088519 5.40975982,4 4.5,4 C4.34755225,4 4.19655312,4.00620233 4.04724121,4.01836843 Z" id="Combined-Shape" fill="#000000"></path>
                        <path d="M8.47692871,0.787576114 L8.47692871,4.56361389 L9.4609375,6.69061638 L13.0238037,3.84639964 L15.9769287,3.84639964 L15.9769287,0.763308581 L8.47692871,0.787576114 Z" id="Path-156" fill="#000000"></path>
                        <path d="M10.0234375,7.90936639 L12.3206787,12.9989732 L15.9770038,12.9989732 L15.9770038,5.2328958 L13.3515626,5.2328958 L10.0234375,7.90936639 Z" id="Path-157" fill="#000000"></path>
                        <path d="M8.04375,12.5625 L7.8375,12.35625 C8.525,11.6 8.9375,10.56875 8.9375,9.46875 C8.9375,6.99375 6.94375,5 4.46875,5 C1.99375,5 0,6.99375 0,9.46875 C0,11.94375 1.99375,13.9375 4.46875,13.9375 C5.56875,13.9375 6.6,13.525 7.35625,12.8375 L7.5625,13.04375 L7.5625,13.59375 L9.625,15.65625 L10.65625,14.625 L8.59375,12.5625 L8.04375,12.5625 Z M4.46875,12.5625 C2.75,12.5625 1.375,11.1875 1.375,9.46875 C1.375,7.75 2.75,6.375 4.46875,6.375 C6.1875,6.375 7.5625,7.75 7.5625,9.46875 C7.5625,11.1875 6.1875,12.5625 4.46875,12.5625 L4.46875,12.5625 Z" id="Shape" fill="#000000"></path>
                        <path d="M4.125,9.125 L2.75,9.125 L2.75,9.8125 L4.125,9.8125 L4.125,11.1875 L4.8125,11.1875 L4.8125,9.8125 L6.1875,9.8125 L6.1875,9.125 L4.8125,9.125 L4.8125,7.75 L4.125,7.75 L4.125,9.125 Z" id="Rectangle-5" fill="#000000"></path>
                    </g>
                </g>
            </g>
        </g>
    </g>
</svg>