<?xml version="1.0" encoding="UTF-8" standalone="no"?>
<svg width="20px" height="20px" viewBox="0 0 20 20" version="1.1" xmlns="http://www.w3.org/2000/svg" xmlns:xlink="http://www.w3.org/1999/xlink" xmlns:sketch="http://www.bohemiancoding.com/sketch/ns">
    <!-- Generator: Sketch 3.5.1 (25234) - http://www.bohemiancoding.com/sketch -->
    <title>post-tumblr</title>
    <desc>Created with Sketch.</desc>
    <defs></defs>
    <g id="share" stroke="none" stroke-width="1" fill="none" fill-rule="evenodd" sketch:type="MSPage">
        <g id="share_normal" sketch:type="MSArtboardGroup" transform="translate(-1100.000000, -627.000000)" fill="#000000">
            <g id="post-tumblr" sketch:type="MSLayerGroup" transform="translate(1100.000000, 627.000000)">
                <path d="M18,0 L2,0 C0.9,0 0,0.9 0,2 L0,18 C0,19.1 0.9,20 2,20 L18,20 C19.1,20 20,19.1 20,18 L20,2 C20,0.9 19.1,0 18,0 L18,0 Z M14,9 L11,9 L11,12.9 C11,13.6 11.1,14 12.1,14 L14,14 L14,17 C14,17 13,17.1 11.9,17.1 C9.3,17.1 8,15.5 8,13.7 L8,9 L6,9 L6,6.2 C8.4,6 8.6,4.2 8.8,3 L11,3 L11,6 L14,6 L14,9 L14,9 Z" id="Shape" sketch:type="MSShapeGroup"></path>
            </g>
        </g>
    </g>
</svg>